<?xml version="1.0" standalone="no"?>
<!DOCTYPE svg PUBLIC "-//W3C//DTD SVG 20010904//EN"
 "http://www.w3.org/TR/2001/REC-SVG-20010904/DTD/svg10.dtd">
<svg version="1.0" xmlns="http://www.w3.org/2000/svg"
 width="2000.000000pt" height="1000.000000pt" viewBox="0 0 2000.000000 1000.000000"
 preserveAspectRatio="xMidYMid meet">
<metadata>
Created by potrace 1.16, written by Peter Selinger 2001-2019
</metadata>
<g transform="translate(0.000000,1000.000000) scale(0.100000,-0.100000)"
fill="#000000" stroke="none">
<path d="M0 5000 l0 -5000 10000 0 10000 0 0 5000 0 5000 -4217 0 c-2350 0
-4212 -4 -4204 -9 7 -5 22 -6 34 -3 14 3 18 1 13 -6 -4 -7 -2 -12 5 -12 7 0
10 -2 7 -5 -3 -4 -33 3 -67 15 -60 20 -182 29 -134 10 15 -6 23 -18 23 -32 l0
-22 -16 22 c-15 21 -42 32 -29 12 3 -5 1 -10 -4 -10 -6 0 -11 7 -11 15 0 8 -5
15 -11 15 -5 0 -7 -5 -4 -10 3 -5 1 -10 -4 -10 -6 0 -11 4 -11 8 0 5 -6 9 -12
10 -7 0 -30 3 -51 6 -21 3 -46 2 -55 -3 -11 -6 -25 -5 -37 1 -16 8 -17 8 -9
-1 6 -7 18 -13 25 -14 8 -2 20 -7 28 -11 11 -7 13 -5 8 7 -4 11 -1 17 9 17 11
0 13 -6 9 -20 -4 -13 -2 -20 7 -21 7 0 4 -4 -7 -8 -13 -6 -23 -4 -28 5 -9 16
-37 19 -37 4 0 -5 7 -7 15 -4 10 4 15 0 15 -11 0 -9 -4 -14 -8 -11 -5 3 -9 -8
-9 -24 0 -17 4 -30 8 -30 3 0 9 -9 12 -19 3 -14 1 -18 -9 -14 -8 3 -11 10 -7
16 4 6 -3 8 -19 4 -18 -5 -30 -1 -42 12 -16 17 -16 19 -1 25 9 3 22 3 27 -1 6
-3 8 -1 4 5 -3 6 -2 13 4 17 6 4 8 10 5 15 -8 12 -65 40 -83 40 -9 0 -24 7
-34 17 -11 9 -18 11 -18 5 0 -7 4 -12 9 -12 5 0 12 -9 16 -19 3 -11 12 -22 20
-25 9 -3 12 0 8 10 -3 9 1 14 12 14 9 0 13 -4 10 -10 -3 -5 3 -10 13 -10 11 0
22 -7 26 -15 3 -8 1 -15 -3 -15 -5 0 -11 4 -13 10 -2 5 -14 0 -28 -11 -14 -12
-20 -18 -13 -15 6 4 14 -2 17 -11 3 -10 31 -33 61 -51 56 -33 65 -46 43 -55
-10 -4 -10 -6 0 -6 7 -1 11 -5 7 -11 -3 -5 -14 -2 -25 7 -10 9 -17 20 -14 24
5 8 -88 79 -105 79 -6 0 -11 -7 -11 -15 0 -8 6 -12 14 -9 8 3 17 0 22 -7 4 -8
3 -10 -4 -5 -7 4 -12 2 -12 -4 0 -8 9 -10 26 -6 18 5 24 3 18 -5 -4 -7 -3 -9
3 -6 6 4 17 -1 24 -11 13 -15 12 -16 -3 -3 -15 11 -18 11 -18 0 0 -11 -2 -11
-10 1 -5 8 -12 11 -15 8 -4 -4 -22 2 -40 12 -24 14 -35 15 -38 7 -3 -9 -9 -8
-22 3 -16 13 -18 13 -13 0 2 -8 13 -15 24 -15 25 0 40 -24 24 -38 -10 -9 -11
-9 -5 2 6 10 2 12 -13 7 -13 -4 -22 -1 -26 9 -3 9 -10 13 -16 10 -12 -8 12
-35 31 -35 10 0 10 -3 1 -12 -8 -8 -15 -8 -26 1 -9 7 -21 11 -28 8 -8 -4 -7
-6 5 -6 9 -1 16 -6 15 -11 -2 -6 12 -20 30 -31 17 -12 32 -16 32 -11 0 6 -4
14 -10 17 -14 9 -12 22 3 22 7 0 13 -7 13 -16 0 -9 3 -29 7 -44 5 -18 4 -26
-2 -23 -5 3 -11 3 -14 -1 -2 -5 -2 -2 -1 5 2 6 -3 12 -10 12 -7 0 -21 9 -30
19 -13 14 -31 20 -59 19 -38 0 -39 -2 -22 -15 11 -8 21 -9 23 -4 2 5 10 7 18
4 12 -4 12 -8 -3 -19 -17 -14 -17 -14 2 -12 11 2 20 -3 20 -10 0 -8 9 -20 19
-28 11 -8 15 -14 10 -14 -6 0 -16 6 -23 13 -11 10 -13 9 -8 -5 3 -10 1 -20 -5
-24 -6 -4 -8 -3 -5 3 4 6 0 16 -9 23 -12 11 -12 15 -2 21 9 6 6 9 -9 9 -27 0
-30 -12 -8 -30 22 -18 -1 -43 -32 -35 -33 8 -28 -8 13 -45 20 -17 34 -34 31
-36 -3 -3 -28 18 -56 46 -28 28 -51 47 -51 42 0 -5 7 -15 15 -22 9 -7 14 -19
11 -27 -3 -7 -1 -13 4 -13 6 0 10 -5 10 -12 0 -7 -7 -5 -18 5 -14 13 -25 15
-49 8 -30 -9 -31 -8 -27 17 3 22 -2 30 -26 44 -35 20 -37 19 -10 -12 19 -22
19 -24 2 -37 -12 -10 -14 -16 -4 -19 6 -3 12 -10 12 -16 0 -6 11 -23 25 -40
14 -16 25 -35 24 -41 0 -8 -2 -8 -6 1 -2 6 -9 12 -15 12 -6 0 -20 10 -32 23
-12 12 -32 23 -44 25 -13 1 -30 9 -38 17 -9 8 -17 15 -19 15 -9 0 -11 -40 -3
-51 8 -11 9 -10 4 4 -6 19 18 25 29 7 4 -6 11 -8 16 -5 5 3 6 -1 3 -10 -7 -17
14 -75 26 -75 12 0 20 -44 11 -53 -5 -5 -8 -1 -8 9 2 13 -5 18 -26 18 -17 1
-36 11 -48 26 l-21 25 19 -33 c14 -27 15 -34 4 -41 -7 -5 -9 -11 -4 -14 5 -3
15 2 23 13 11 15 15 16 27 5 16 -16 17 -35 2 -35 -5 0 -8 4 -4 9 3 5 1 12 -4
15 -5 3 -11 -3 -14 -14 -3 -11 -1 -18 4 -15 4 3 15 -8 24 -25 10 -19 12 -30 4
-30 -6 0 -13 9 -16 19 -4 16 -15 24 -53 35 -3 1 -10 5 -17 9 -7 4 -19 -3 -31
-18 -24 -31 -42 -32 -42 -4 0 18 -3 19 -15 9 -8 -7 -21 -10 -29 -7 -8 3 -17
-1 -20 -9 -3 -9 3 -16 19 -20 13 -3 29 -12 35 -19 8 -10 4 -12 -17 -10 -39 5
-73 16 -73 24 0 4 5 12 12 19 9 9 8 12 -5 12 -9 0 -17 -6 -17 -12 -1 -8 -6 -6
-14 5 -11 14 -15 15 -19 3 -3 -8 -3 -17 1 -20 10 -11 13 -48 2 -41 -5 3 -10
14 -10 23 0 15 -2 15 -10 2 -9 -13 -11 -13 -20 0 -8 13 -10 12 -10 -2 0 -12 8
-18 23 -18 20 -1 21 -2 5 -14 -12 -9 -14 -16 -7 -23 8 -8 8 -17 0 -31 -8 -16
-7 -21 4 -26 8 -3 15 -13 15 -23 -1 -15 -3 -15 -20 5 -15 18 -17 28 -10 43 6
10 9 19 8 20 -33 8 -48 7 -42 -3 4 -7 9 -26 10 -43 2 -18 0 -24 -4 -13 -6 14
-10 14 -24 4 -10 -7 -16 -15 -13 -18 3 -2 -2 -5 -10 -5 -8 0 -12 4 -9 9 3 4
-3 5 -12 1 -16 -6 -16 -7 0 -18 15 -11 14 -13 -9 -18 -19 -3 -25 -1 -21 8 3 8
-2 16 -10 19 -8 3 -14 19 -14 36 0 16 -4 30 -10 30 -20 0 -14 -78 8 -104 10
-11 12 -16 5 -13 -6 4 -14 3 -18 -3 -3 -5 0 -10 7 -10 8 -1 7 -4 -4 -10 -9 -6
-19 -28 -23 -50 -4 -24 -14 -44 -26 -50 -10 -6 -19 -15 -19 -21 0 -6 5 -7 12
-3 7 4 8 3 4 -5 -4 -6 -12 -9 -17 -6 -5 4 -9 2 -9 -4 0 -5 -9 -8 -20 -6 -11 2
-20 0 -20 -5 0 -5 -7 -7 -16 -3 -11 4 -23 -2 -35 -18 -18 -24 -19 -24 -19 -2
0 32 -18 38 -26 8 -8 -32 -21 -32 -36 0 -9 19 -14 22 -25 14 -10 -9 -19 -7
-38 5 -14 9 -25 21 -25 27 0 6 -4 8 -9 5 -5 -3 -12 6 -16 21 -5 21 -8 24 -16
12 -6 -10 -9 -6 -9 16 0 65 -37 144 -60 130 -5 -3 -16 5 -24 17 -11 15 -16 17
-16 8 0 -8 -7 -28 -15 -44 -8 -15 -12 -33 -8 -40 3 -6 0 -6 -8 2 -11 10 -11
16 -1 32 7 12 8 20 2 20 -5 0 -10 5 -10 11 0 5 4 8 9 5 12 -8 8 25 -6 49 -6
11 -15 16 -20 11 -4 -5 -3 -11 4 -13 7 -2 9 -11 6 -20 -5 -12 -3 -14 7 -8 8 5
11 4 7 -3 -5 -7 -17 -7 -42 1 -31 9 -33 12 -21 26 7 9 16 30 20 46 6 28 5 29
-9 11 -15 -20 -18 -17 -16 19 l1 20 -9 -20 c-6 -13 -4 -25 5 -36 12 -14 12
-19 -5 -38 -11 -12 -17 -31 -15 -44 3 -16 1 -14 -7 6 -9 24 -19 31 -40 29 -8
-1 -4 36 4 44 11 12 8 21 -7 21 -9 0 -16 -14 -18 -38 -2 -20 -1 -36 2 -34 3 1
14 -1 25 -6 16 -6 17 -8 3 -8 -9 -1 -22 -9 -27 -18 -10 -17 -10 -17 -11 0 0
10 -4 15 -10 12 -5 -3 -10 1 -10 9 0 8 5 18 10 21 6 4 9 20 6 37 -3 19 1 36
10 46 8 8 13 16 10 19 -9 9 -41 -33 -38 -50 2 -10 -1 -24 -8 -32 -8 -10 -8
-14 2 -18 9 -4 9 -6 1 -6 -16 -1 -26 17 -16 32 4 6 6 20 5 29 -2 9 4 31 13 48
15 30 15 30 -4 18 -11 -6 -17 -16 -15 -20 9 -14 -7 -9 -22 7 -9 8 -13 19 -10
24 3 5 -1 11 -9 15 -8 3 -14 2 -14 -2 1 -4 0 -9 -1 -12 -1 -3 -3 -17 -4 -33
-1 -18 2 -26 10 -23 7 3 17 -1 24 -8 8 -10 7 -15 -4 -19 -8 -3 -16 -1 -18 5
-3 8 -11 7 -28 -2 -19 -10 -25 -10 -34 2 -6 8 -18 13 -26 11 -10 -3 -11 -2 -4
4 21 15 35 51 23 58 -6 4 -11 5 -13 4 -26 -39 -37 -63 -33 -73 6 -15 -9 -43
-18 -34 -3 3 1 24 8 47 16 46 15 48 -7 25 -14 -13 -16 -13 -16 0 0 8 10 18 23
22 22 7 37 22 37 38 0 6 -7 1 -15 -10 -8 -10 -15 -15 -15 -10 0 5 -7 3 -15 -4
-10 -9 -15 -9 -15 -1 0 13 32 46 51 53 12 5 12 9 1 27 -9 15 -10 27 -2 41 14
27 12 34 -5 16 -8 -8 -15 -18 -15 -22 0 -16 -53 -114 -62 -114 -5 0 -6 -4 -3
-10 3 -5 -1 -10 -9 -10 -13 0 -13 4 -1 26 7 15 11 32 9 39 -3 7 2 15 11 19 9
3 14 10 11 15 -3 5 1 11 9 15 8 3 15 13 15 23 -1 17 -1 17 -11 0 -9 -15 -13
-16 -26 -5 -9 7 -18 12 -20 11 -1 -2 -11 -3 -20 -2 -17 0 -17 1 0 8 10 4 18
10 18 14 -2 18 0 18 17 -4 l19 -22 6 22 c5 19 3 20 -11 9 -13 -11 -15 -11 -9
4 4 13 1 16 -16 12 -11 -2 -25 2 -29 9 -12 18 -10 27 7 27 8 0 15 -4 15 -10 0
-5 7 -10 15 -10 8 0 15 5 15 11 0 5 -4 7 -10 4 -5 -3 -10 1 -10 9 0 12 -5 14
-24 6 -13 -5 -27 -6 -30 -3 -3 4 -6 -1 -6 -9 0 -20 -21 -28 -35 -15 -8 7 -5
17 10 32 48 52 63 75 53 81 -5 3 -7 12 -4 20 3 8 1 14 -4 14 -6 0 -10 -5 -10
-11 0 -5 -16 -17 -35 -25 -23 -9 -33 -19 -29 -26 6 -9 9 -9 11 -1 3 7 10 10
17 7 8 -3 16 2 19 10 4 9 11 16 16 16 6 0 1 -16 -10 -35 -24 -40 -48 -60 -28
-24 11 21 10 22 -3 12 -8 -7 -18 -9 -24 -4 -5 5 -17 0 -29 -11 l-20 -21 21 11
c17 9 20 8 19 -6 0 -10 -5 -23 -9 -31 -9 -14 12 -34 26 -25 4 3 8 1 8 -5 0
-15 -18 -23 -22 -9 -4 10 -11 10 -34 0 -28 -13 -28 -13 -11 5 20 22 14 33 -19
33 -12 0 -25 7 -28 16 -4 12 -2 15 9 10 9 -3 15 0 15 10 0 8 -4 13 -9 10 -5
-4 -12 0 -14 6 -4 10 -6 10 -6 1 -1 -7 -8 -13 -17 -13 -13 0 -12 5 5 29 12 16
21 36 21 45 0 9 3 15 8 14 4 -2 18 5 32 15 14 9 18 17 10 17 -9 0 -6 9 11 27
l24 26 -32 -23 c-18 -13 -30 -27 -27 -32 3 -4 -1 -8 -10 -8 -8 0 -17 6 -19 13
-3 6 -6 3 -6 -8 -1 -12 -9 -22 -18 -23 -34 -4 -52 -8 -59 -15 -4 -3 4 -4 18
-2 19 4 24 0 25 -18 1 -14 -1 -17 -6 -9 -9 15 -61 12 -61 -5 0 -6 -5 -15 -12
-19 -7 -5 -8 -3 -3 6 6 10 4 12 -8 7 -9 -3 -19 -1 -23 5 -5 7 -2 8 6 3 10 -6
11 -1 6 21 -5 20 -4 25 3 14 6 -8 11 -12 13 -10 2 3 11 19 20 37 14 27 14 34
2 44 -7 6 -11 16 -7 23 4 6 -12 -4 -35 -22 -46 -37 -57 -50 -48 -59 3 -3 21
10 40 31 19 20 38 32 41 26 3 -5 1 -10 -5 -10 -6 0 -8 -5 -4 -12 4 -6 3 -8 -3
-5 -12 7 -44 -28 -35 -39 4 -4 2 -4 -5 0 -6 3 -15 2 -18 -4 -5 -8 -11 -7 -21
1 -11 9 -15 8 -20 -5 -9 -23 -27 -20 -21 5 3 13 1 19 -6 16 -7 -2 -11 -11 -9
-21 2 -9 -1 -16 -7 -16 -13 0 -8 24 8 44 10 12 11 16 1 16 -9 0 -10 3 -1 14 9
10 7 17 -6 27 -16 13 -17 12 -4 -3 15 -20 2 -25 -16 -7 -8 8 -14 5 -24 -12
l-12 -23 -9 23 -8 23 -49 -35 c-39 -29 -48 -32 -44 -16 3 10 13 19 22 19 12 0
10 5 -8 19 -15 12 -21 23 -16 31 6 9 4 11 -4 6 -7 -5 -10 -15 -7 -23 3 -8 1
-11 -4 -8 -6 3 -10 1 -10 -6 0 -9 -4 -9 -15 1 -8 6 -20 8 -27 4 -7 -4 -5 1 4
12 14 16 15 23 6 32 -7 7 -17 12 -22 12 -6 0 -4 -5 4 -10 21 -13 0 -30 -25
-20 -11 5 -14 9 -7 9 7 1 11 5 7 10 -3 6 3 14 12 20 28 16 5 13 -28 -4 -16 -9
-34 -13 -39 -10 -6 4 -7 -2 -3 -12 3 -10 3 -15 -2 -11 -4 4 -20 1 -35 -7 -15
-8 -31 -11 -35 -7 -4 4 -2 -3 4 -15 11 -22 10 -22 -14 -13 -33 12 -48 13 -41
1 3 -5 -5 -8 -19 -7 -29 1 -30 3 -10 22 8 9 15 13 15 9 0 -3 9 -1 19 5 16 8
20 6 24 -8 4 -13 5 -11 6 6 1 20 11 27 34 23 12 -2 8 37 -5 45 -7 4 -8 3 -4
-4 4 -7 2 -12 -3 -12 -6 0 -11 6 -11 14 0 9 -9 13 -25 11 -16 -1 -24 2 -22 9
2 6 13 10 25 8 11 -2 23 1 26 7 8 12 -14 27 -23 15 -10 -14 -33 -16 -29 -3 2
7 13 13 23 15 10 2 23 10 28 19 5 9 20 20 34 26 14 5 23 12 21 15 -3 3 -24 -3
-48 -12 -31 -12 -38 -19 -28 -26 9 -6 6 -7 -9 -3 -12 3 -24 1 -28 -5 -3 -6
-11 -8 -16 -4 -5 3 -16 0 -24 -6 -8 -7 -15 -8 -15 -3 0 5 17 17 37 27 35 17
36 19 19 31 -11 8 -30 12 -47 8 -22 -4 -29 -2 -29 10 0 15 44 18 67 4 6 -4 15
-3 18 3 4 6 3 10 -2 9 -12 -3 -60 18 -67 29 -3 6 -16 8 -29 5 -22 -5 -22 -5
-2 10 23 19 13 22 -16 7 -24 -13 -25 -2 -1 16 16 12 16 13 -3 10 -15 -2 -20
-11 -20 -32 0 -21 -6 -30 -20 -32 -11 -3 -23 -9 -27 -15 -4 -6 -10 -8 -14 -4
-4 4 1 13 11 21 18 13 18 14 -2 24 -14 8 -23 8 -31 0 -7 -7 -12 -9 -12 -6 0 4
-14 3 -30 -2 -17 -5 -30 -5 -30 0 0 4 9 10 20 13 11 3 20 11 20 19 0 11 -2 11
-9 -1 -7 -10 -13 -11 -27 -2 -11 6 -13 11 -6 11 6 0 12 4 12 10 0 6 -283 9
-759 10 -605 0 -760 -2 -764 -12 -4 -10 -6 -10 -6 -1 -1 10 -672 13 -3281 13
l-3280 0 0 -5000z m7640 4285 c0 -44 4 -57 18 -62 9 -4 21 -12 25 -20 5 -8 28
-13 62 -13 77 0 77 -16 -1 -23 -78 -6 -104 -28 -104 -89 0 -21 -4 -38 -10 -38
-5 0 -10 17 -10 39 0 24 -8 48 -21 65 -17 22 -28 26 -72 26 -37 0 -48 3 -37
10 8 5 31 10 51 10 50 0 71 27 77 95 6 72 22 71 22 0z"/>
</g>
</svg>
